<?xml version="1.0" encoding="UTF-8"?>
<svg version="1.1" xmlns="http://www.w3.org/2000/svg" width="1024" height="1024">
<path d="M0 0 C8.86954973 3.96173221 14.29318123 12.33455154 18 21 C21.44345682 31.17168581 20.10326346 41.33564492 16.1328125 51.13671875 C15 53 15 53 12 54 C10.35 47.73 8.7 41.46 7 35 C7.66 41.6 8.32 48.2 9 55 C1.57326179 51.28663089 -3.12310169 45.06239106 -5.98046875 37.35546875 C-9.7153567 24.81816882 -8.10245755 14.47000739 -2.12109375 2.96875 C-1 1 -1 1 0 0 Z " fill="#000000" transform="translate(473,153)"/>
<path d="M0 0 C9.38105153 7.08365115 15.38127334 16.90636669 17.6875 28.4375 C18.7222106 40.23320085 17.11199369 51.13427704 10 61 C9.01 61.66 8.02 62.32 7 63 C5.84986807 60.69973614 5.70767601 58.98752064 5.46484375 56.4296875 C5.38613037 55.62257324 5.30741699 54.81545898 5.22631836 53.98388672 C5.1310083 52.9579541 5.03569824 51.93202148 4.9375 50.875 C4.628125 47.61625 4.31875 44.3575 4 41 C3.67 48.26 3.34 55.52 3 63 C-4.05091169 60.17963533 -6.75844283 55.02851712 -9.8125 48.25 C-14.08320723 36.56174864 -12.64686595 24.33381938 -8 13 C-3.37735849 3.37735849 -3.37735849 3.37735849 0 0 Z " fill="#000000" transform="translate(534,180)"/>
<path d="M0 0 C0.66 0.33 1.32 0.66 2 1 C4.48431069 8.45293207 3.61564874 16.64452058 0.40234375 23.734375 C-2.48407067 28.39766292 -6.34756286 32.34159362 -11.75390625 33.68359375 C-12.86572266 33.84021484 -12.86572266 33.84021484 -14 34 C-13 31 -12 28 -11 25 C-12.65 27.64 -14.3 30.28 -16 33 C-18.82448319 28.76327522 -18.45601929 25.54541677 -17.5703125 20.6015625 C-15.23871021 11.24636813 -9.76568266 5.67516438 -1.69921875 0.71484375 C-1.13847656 0.47894531 -0.57773437 0.24304688 0 0 Z " fill="#000000" transform="translate(575,180)"/>
<path d="M0 0 C0.66 0.33 1.32 0.66 2 1 C3.8122528 7.86748429 2.82045805 13.62220746 0 20 C-0.37125 20.886875 -0.7425 21.77375 -1.125 22.6875 C-4.06565053 26.31430232 -7.83916386 28.90155404 -12 31 C-13.32 31 -14.64 31 -16 31 C-15.690625 30.236875 -15.38125 29.47375 -15.0625 28.6875 C-14.32106407 26.81210323 -13.63771783 24.91315348 -13 23 C-13.34933594 23.5053125 -13.69867188 24.010625 -14.05859375 24.53125 C-14.51363281 25.1809375 -14.96867187 25.830625 -15.4375 26.5 C-15.88996094 27.1496875 -16.34242188 27.799375 -16.80859375 28.46875 C-17.20175781 28.9740625 -17.59492188 29.479375 -18 30 C-18.33 30 -18.66 30 -19 30 C-19.70010634 21.81653475 -18.74885675 15.8182578 -14 9 C-10.04540997 4.54756372 -5.62165265 1.87388422 0 0 Z M-11 19 C-10 21 -10 21 -10 21 Z " fill="#000000" transform="translate(511,192)"/>
<path d="M0 0 C-1.09745571 9.59570245 -7.98766115 18.54810149 -15 25 C-25.5746779 32.95137568 -36.16618692 37.15763068 -49.375 37.25 C-50.10460937 37.270625 -50.83421875 37.29125 -51.5859375 37.3125 C-56.79593804 37.34971429 -60.34019004 36.33605249 -65 34 C-65 33.34 -65 32.68 -65 32 C-64.34402832 31.67725098 -63.68805664 31.35450195 -63.01220703 31.02197266 C-60.04772508 29.56048989 -57.08634457 28.09282878 -54.125 26.625 C-53.09246094 26.11710937 -52.05992187 25.60921875 -50.99609375 25.0859375 C-50.00996094 24.59609375 -49.02382813 24.10625 -48.0078125 23.6015625 C-46.64100342 22.92601318 -46.64100342 22.92601318 -45.24658203 22.23681641 C-42.88927423 21.074886 -42.88927423 21.074886 -41 19 C-49.70498897 22.24007034 -58.40080002 25.48590385 -67 29 C-66.69395717 22.87914345 -63.70765933 19.55160225 -60 15 C-59.4225 14.154375 -58.845 13.30875 -58.25 12.4375 C-42.92361792 -4.16608058 -20.65985172 -5.853044 0 0 Z " fill="#000000" transform="translate(638,198)"/>
<path d="M0 0 C9.10292643 -0.3695925 14.98849138 -0.26330794 22.6875 4.75 C25.66434893 7.64639356 27.22108162 10.23690342 29 14 C28.67 14.99 28.34 15.98 28 17 C26.02 16.01 24.04 15.02 22 14 C22.99 14.61875 23.98 15.2375 25 15.875 C25.99 16.57625 26.98 17.2775 28 18 C28 18.66 28 19.32 28 20 C21.01179516 20.38117481 14.8687281 19.74161834 9.015625 15.59375 C4.15750204 11.19237364 1.99532396 6.15947832 0 0 Z M18 11 C18.33 11.66 18.66 12.32 19 13 C19.66 12.67 20.32 12.34 21 12 C20.01 11.67 19.02 11.34 18 11 Z " fill="#000000" transform="translate(452,208)"/>
<path d="M0 0 C4.70916178 1.28369279 7.56518659 2.99261132 11.125 6.3125 C11.95257813 7.07175781 12.78015625 7.83101562 13.6328125 8.61328125 C17.42697864 12.43875239 20.25325652 15.94728235 22.1875 21 C22.51105469 21.825 22.83460938 22.65 23.16796875 23.5 C25.83754851 31.52127251 25.70736208 39.04712388 23 47 C22.34 47 21.68 47 21 47 C18.03 41.06 15.06 35.12 12 29 C13.92927379 34.45969781 13.92927379 34.45969781 15.85913086 39.91918945 C16.10026611 40.60198975 16.34140137 41.28479004 16.58984375 41.98828125 C16.83597412 42.68477783 17.08210449 43.38127441 17.33569336 44.09887695 C17.90482813 45.72763566 18.45440223 47.36320668 19 49 C12.51476261 47.78401799 8.28145552 45.04414396 4 40 C-2.43209211 29.22415738 -5.0536602 18.33698996 -2.328125 5.9453125 C-1.64544492 3.92947416 -0.83837802 1.95621538 0 0 Z " fill="#000000" transform="translate(402,209)"/>
<path d="M0 0 C5.06244593 4.49995194 8.40351606 8.99582538 9.421875 15.83203125 C9.76205548 23.1931589 8.21194033 28.9118317 4 35 C3.01 35.495 3.01 35.495 2 36 C1.67 32.7 1.34 29.4 1 26 C0.67 29.3 0.34 32.6 0 36 C-4.5997655 33.14068631 -6.06189245 30.31677102 -7.49609375 25.29296875 C-9.07608247 18.10340765 -7.52189181 11.47402287 -3.9453125 5.12890625 C-2.7489864 3.30822017 -1.54535837 1.54535837 0 0 Z " fill="#000000" transform="translate(726,212)"/>
<path d="M0 0 C11.21779538 1.97350104 19.35092928 6.35489002 27 15 C31.40166755 22.08712938 34.16188681 28.40150818 34.0625 36.75 C34.05347656 37.73484375 34.04445313 38.7196875 34.03515625 39.734375 C34.02355469 40.48203125 34.01195312 41.2296875 34 42 C33.01 42 32.02 42 31 42 C29.31640625 40.171875 29.31640625 40.171875 27.5625 37.75 C25.23376445 34.56166408 22.8532567 31.73410972 20 29 C20.721875 30.07121094 21.44375 31.14242187 22.1875 32.24609375 C23.1251205 33.6431483 24.06261397 35.04028812 25 36.4375 C25.47695313 37.14455078 25.95390625 37.85160156 26.4453125 38.58007812 C26.89648438 39.25361328 27.34765625 39.92714844 27.8125 40.62109375 C28.23144531 41.2442749 28.65039062 41.86745605 29.08203125 42.50952148 C30 44 30 44 30 45 C21.28548282 44.27379023 14.9962774 40.89233118 8.9609375 34.546875 C2.80943129 26.55726933 -1.16043932 17.46586563 -1.125 7.3125 C-1.12757813 6.56613281 -1.13015625 5.81976563 -1.1328125 5.05078125 C-1 3 -1 3 0 0 Z " fill="#000000" transform="translate(309,214)"/>
<path d="M0 0 C-1.64656336 9.28062985 -4.57463272 17.78341344 -12 24 C-12.57492187 24.50273437 -13.14984375 25.00546875 -13.7421875 25.5234375 C-19.69880332 30.42747864 -26.24297974 33.03834336 -34 33.3125 C-37 33 -37 33 -39 31 C-34.71 27.37 -30.42 23.74 -26 20 C-28.59875 21.670625 -28.59875 21.670625 -31.25 23.375 C-34.43736948 25.42402323 -37.57053707 27.38325319 -41 29 C-40.70540398 21.04590733 -37.70602707 15.05238474 -32.328125 9.171875 C-24.91023135 2.43452205 -9.9630937 -4.98154685 0 0 Z " fill="#000000" transform="translate(692,220)"/>
<path d="M0 0 C6.6734421 5.43761949 10.04733159 14.63768836 11 23 C12.00996729 36.99526096 9.43346421 49.37408424 0.125 60.17578125 C-1.52781967 61.89402503 -3.11852488 63.53555287 -5 65 C-5.66 65 -6.32 65 -7 65 C-6.67 56.42 -6.34 47.84 -6 39 C-7.32 46.92 -8.64 54.84 -10 63 C-10.99 63 -11.98 63 -13 63 C-19.43993967 55.47081238 -21.30909372 46.14066199 -20.82421875 36.5078125 C-19.28156753 21.2682883 -12.75016672 11.34615718 -2 1 C-1.34 0.67 -0.68 0.34 0 0 Z " fill="#000000" transform="translate(453,223)"/>
<path d="M0 0 C-0.26832982 12.39195902 -4.37988117 22.9990727 -13 32 C-20.47196139 38.89719513 -29.35166002 44.21541676 -39.75 44.0625 C-40.54921875 44.05347656 -41.3484375 44.04445313 -42.171875 44.03515625 C-42.77515625 44.02355469 -43.3784375 44.01195312 -44 44 C-39.10995345 38.23225279 -34.07515796 32.60523001 -29 27 C-33.31547039 28.64696696 -36.00923905 31.85762051 -39.125 35.125 C-41.04571432 37.13783491 -42.98429507 39.07832212 -45 41 C-45.66 41 -46.32 41 -47 41 C-47.73286994 29.76266086 -43.31093221 21.35158743 -36 13 C-25.93594756 3.4401586 -13.6118124 -0.4430608 0 0 Z " fill="#000000" transform="translate(778,224)"/>
<path d="M0 0 C5.25959029 1.09716185 8.46470283 3.8112996 11.49609375 8.1328125 C15.17708531 14.61886562 15.99126083 20.62293256 15 28 C13.97265625 30.85546875 13.97265625 30.85546875 13 33 C11 32 11 32 10.1484375 29.93359375 C9.43229167 27.62239583 8.71614583 25.31119792 8 23 C8.33 26.3 8.66 29.6 9 33 C4.8453992 31.68578954 3.06842627 30.2978753 0.75 26.625 C-0.00023437 25.46871094 -0.00023437 25.46871094 -0.765625 24.2890625 C-3.73848701 18.77609688 -3.88785883 12.4172241 -2.328125 6.4140625 C-1.60477794 4.25084535 -0.84184369 2.11964214 0 0 Z " fill="#000000" transform="translate(630,229)"/>
<path d="M0 0 C0.52595758 13.51905787 -0.74718616 23.61966726 -10 34 C-15.2020255 38.52025196 -20.26220444 40.77494626 -27 42 C-25.45614871 37.85967154 -23.48971062 34.06446947 -21.375 30.1875 C-21.05015625 29.59001953 -20.7253125 28.99253906 -20.390625 28.37695312 C-19.59620849 26.91662865 -18.79844624 25.45812509 -18 24 C-18.89693574 25.18666756 -19.7924735 26.37439177 -20.6875 27.5625 C-21.50541016 28.64724609 -21.50541016 28.64724609 -22.33984375 29.75390625 C-23.85751564 31.80722704 -25.30715855 33.89388218 -26.75 36 C-27.4925 36.99 -28.235 37.98 -29 39 C-29.66 39 -30.32 39 -31 39 C-31.6016597 28.3372531 -30.67270878 20.25115354 -23.875 11.75 C-17.91349782 5.40305587 -8.95087229 -0.51147842 0 0 Z " fill="#000000" transform="translate(374,242)"/>
<path d="M0 0 C6.96534833 1.18559121 11.30234243 4.82076438 16 10 C19.43122944 15.20794825 21.13534306 20.38702946 21.1875 26.625 C21.20167969 27.40101563 21.21585938 28.17703125 21.23046875 28.9765625 C21 31 21 31 19 33 C16.36 28.71 13.72 24.42 11 20 C12.98 24.62 14.96 29.24 17 34 C9.3193488 32.46386976 5.67767208 29.02642298 1.19921875 22.90234375 C-1.50628791 18.61054655 -1.14919273 14.26193197 -1.125 9.375 C-1.12886719 8.58609375 -1.13273438 7.7971875 -1.13671875 6.984375 C-1.12665394 1.12665394 -1.12665394 1.12665394 0 0 Z " fill="#000000" transform="translate(697,243)"/>
<path d="M0 0 C8.6555895 -0.59239776 15.94931026 0.17811792 23.0390625 5.54296875 C27.02409306 9.2481993 30.51050736 13.68820638 32 19 C31.67 20.32 31.34 21.64 31 23 C26.545 20.03 26.545 20.03 22 17 C23.32 18.134375 24.64 19.26875 26 20.4375 C27.3541418 21.60121561 28.69306843 22.78350343 30 24 C30 24.33 30 24.66 30 25 C21.89725321 25.50642167 15.74066505 24.38074271 9.25 19.3125 C3.52959375 14.03513205 1.58929483 7.41670921 0 0 Z M18 14 C18.33 14.66 18.66 15.32 19 16 C19.66 15.67 20.32 15.34 21 15 C20.01 14.67 19.02 14.34 18 14 Z " fill="#000000" transform="translate(285,248)"/>
<path d="M0 0 C7.88239533 5.03289091 12.94446264 10.16326259 17.8125 18.1875 C3.92363306 25.54859948 -8.21908272 29.03935597 -24 24.5625 C-32.8474173 21.46861788 -41.46938426 16.8466275 -47.1875 9.1875 C-47.5175 7.8675 -47.8475 6.5475 -48.1875 5.1875 C-39.6075 6.1775 -31.0275 7.1675 -22.1875 8.1875 C-28.21427461 6.62844819 -28.21427461 6.62844819 -34.24291992 5.07666016 C-38.34286672 4.00695745 -42.30123853 2.90936326 -46.1875 1.1875 C-35.28457644 -11.08708169 -12.50277123 -7.13107162 0 0 Z " fill="#000000" transform="translate(603.1875,253.8125)"/>
<path d="M0 0 C2.7083445 2.36012878 3.85019927 4.59993115 5.125 7.9375 C5.45757812 8.79214844 5.79015625 9.64679688 6.1328125 10.52734375 C10.09345954 21.82054005 9.13822864 35.26505463 4 46 C0.23503873 52.75630036 -4.46436301 58.71803094 -11 63 C-11.66 63 -12.32 63 -13 63 C-12.68787361 60.33328914 -12.37530779 57.66663095 -12.0625 55 C-11.93198242 53.88431641 -11.93198242 53.88431641 -11.79882812 52.74609375 C-11.66831055 51.63427734 -11.66831055 51.63427734 -11.53515625 50.5 C-11.456604 49.8296875 -11.37805176 49.159375 -11.29711914 48.46875 C-10.87696107 44.97767488 -10.43613933 41.48911461 -10 38 C-12.31 46.25 -14.62 54.5 -17 63 C-23.75189199 53.99747735 -24.84659431 44.9694434 -24 34 C-21.53606325 21.13112554 -14.76557616 11.51934154 -5 3 C-2 1 -2 1 0 0 Z " fill="#000000" transform="translate(485,252)"/>
<path d="M0 0 C13.91312111 -0.9327232 27.06365196 2.08004113 38 11 C45.86540407 18.2017606 52.11403981 27.07315772 53 38 C49.62871486 38 48.96624081 37.52669427 46.3125 35.62890625 C45.61382812 35.13712891 44.91515625 34.64535156 44.1953125 34.13867188 C43.47085938 33.61853516 42.74640625 33.09839844 42 32.5625 C40.56480241 31.53973019 39.12738741 30.52006296 37.6875 29.50390625 C37.05199219 29.04830322 36.41648437 28.5927002 35.76171875 28.12329102 C33.8859598 26.82676645 33.8859598 26.82676645 31 26 C33.04142311 27.72945489 35.08313202 29.45857048 37.125 31.1875 C37.69476563 31.67025391 38.26453125 32.15300781 38.8515625 32.65039062 C39.41875 33.13056641 39.9859375 33.61074219 40.5703125 34.10546875 C41.1365332 34.5854834 41.70275391 35.06549805 42.28613281 35.56005859 C43.4400675 36.52956099 44.6010662 37.49071031 45.76855469 38.44384766 C47.19544174 39.60943235 48.60006265 40.80218126 50 42 C50 42.33 50 42.66 50 43 C35.6179474 43.83508693 24.86820362 40.66634856 14 31 C6.12666254 22.73969321 -0.21715015 11.62740354 0 0 Z " fill="#000000" transform="translate(388,263)"/>
<path d="M0 0 C0 4.07636767 -1.20023635 5.06024816 -4 8 C-9.922855 12.26636235 -14.41803567 14.15550205 -21.8125 14.25 C-23.61654297 14.28867187 -23.61654297 14.28867187 -25.45703125 14.328125 C-29.28988045 13.9731533 -31.69715027 12.92202587 -35 11 C-35 10.34 -35 9.68 -35 9 C-30.05 7.515 -30.05 7.515 -25 6 C-28.63 6.33 -32.26 6.66 -36 7 C-33.31952192 1.63904383 -29.52825862 -1.46808417 -24.01171875 -3.86328125 C-15.31244444 -6.42599332 -7.82920901 -3.97938519 0 0 Z " fill="#000000" transform="translate(684,267)"/>
<path d="M0 0 C-0.18612684 9.84780202 -1.98709626 17.26683149 -8.4375 24.875 C-15.82352941 31 -15.82352941 31 -22 31 C-20.35 27.7 -18.7 24.4 -17 21 C-17.94875 22.32 -18.8975 23.64 -19.875 25 C-21.4921875 27.25 -21.4921875 27.25 -23 29 C-23.66 29 -24.32 29 -25 29 C-25.5484995 20.36113293 -23.62033432 14.89306813 -18.8125 7.75 C-14.02715952 3.07100042 -6.87798145 -2.29266048 0 0 Z M-16 18 C-15 20 -15 20 -15 20 Z " fill="#000000" transform="translate(813,265)"/>
<path d="M0 0 C3.59052576 2.39529034 7.0264162 4.85870865 10 8 C10 8.99 10 9.98 10 11 C2.12852568 17.55671614 -7.52242653 20.40793415 -17.625 19.9375 C-26.23095914 18.98808814 -32.80407439 16.03705572 -39 10 C-39 9.34 -39 8.68 -39 8 C-33.06 7.67 -27.12 7.34 -21 7 C-26.94 6.34 -32.88 5.68 -39 5 C-28.22123318 -5.77876682 -13.45065947 -7.04744277 0 0 Z " fill="#000000" transform="translate(763,281)"/>
<path d="M0 0 C1.5778125 0.99 1.5778125 0.99 3.1875 2 C3.1875 2.99 3.1875 3.98 3.1875 5 C-0.4425 5.33 -4.0725 5.66 -7.8125 6 C-3.8525 6 0.1075 6 4.1875 6 C1.66866625 11.0376675 0.07730332 11.51220533 -4.8125 14 C-12.36871058 16.51873686 -19.59301555 15.17809613 -26.81640625 12.265625 C-29.14840802 10.78701723 -29.82502581 9.54074441 -30.8125 7 C-29.59114002 5.86652945 -28.36000819 4.74358413 -27.125 3.625 C-26.44050781 2.99851562 -25.75601562 2.37203125 -25.05078125 1.7265625 C-18.10854926 -3.62852745 -7.74200668 -3.89865336 0 0 Z " fill="#000000" transform="translate(329.8125,282)"/>
<path d="M0 0 C6.62876473 0.5514397 10.60812506 5.42513027 15 10 C22.72584899 19.68950227 25.95741637 29.61961594 25 42 C23.14137931 50.85862069 23.14137931 50.85862069 20 54 C16.04 44.595 16.04 44.595 12 35 C13.68170958 42.57619225 13.68170958 42.57619225 15.625 50.0625 C15.88539063 51.00222656 16.14578125 51.94195312 16.4140625 52.91015625 C16.60742188 53.59980469 16.80078125 54.28945313 17 55 C9.39322498 52.89855999 4.6254812 48.0587149 0.3828125 41.5 C-6.35368554 28.74450076 -6.05502691 17.40186378 -1.97265625 3.80859375 C-1 1 -1 1 0 0 Z M10 31 C11 33 11 33 11 33 Z " fill="#000000" transform="translate(254,281)"/>
<path d="M0 0 C-0.73812376 16.34944133 -6.99851665 30.79028118 -19 42 C-28.62918843 49.6130771 -39.68095655 53.83518939 -52 53 C-50.41060574 49.06785699 -47.83657498 46.66979654 -44.8125 43.75 C-40.30766188 39.35190809 -36.05106686 34.8253322 -32 30 C-38.26829735 34.38780814 -43.74916918 39.38463045 -49.25048828 44.68041992 C-53.7907677 49 -53.7907677 49 -56 49 C-57.04963523 37.71642124 -52.04070533 27.49354928 -45 19 C-42.5 16.25 -42.5 16.25 -40 14 C-39.51273438 13.52046875 -39.02546875 13.0409375 -38.5234375 12.546875 C-28.35184901 3.00197206 -13.67980218 -0.81715633 0 0 Z " fill="#000000" transform="translate(709,281)"/>
<path d="M0 0 C6.85512213 3.52087035 12.55526681 8.66382248 16.25 15.4375 C16.25 16.4275 16.25 17.4175 16.25 18.4375 C8.48728613 21.43892198 -0.82069736 21.94557995 -8.83984375 19.4921875 C-15.11411196 16.49186075 -19.92507862 12.2755379 -23.75 6.4375 C-23.75 5.7775 -23.75 5.1175 -23.75 4.4375 C-19.13 5.4275 -14.51 6.4175 -9.75 7.4375 C-14.04 5.7875 -18.33 4.1375 -22.75 2.4375 C-16.9212828 -3.3912172 -7.4196045 -3.02471682 0 0 Z " fill="#000000" transform="translate(565.75,287.5625)"/>
<path d="M0 0 C0.65101838 13.02036754 -3.04863322 24.05700465 -11.1875 34.1875 C-16.98669945 40.51619158 -26.30992429 46.42656494 -35.05078125 47.17578125 C-36.70153121 47.1857056 -38.35243497 47.10297281 -40 47 C-35.48432691 40.87647362 -30.77926562 34.9194965 -26 29 C-31.10196314 32.99741442 -35.93106286 37.21763626 -39.8125 42.4375 C-40.4003125 43.2109375 -40.4003125 43.2109375 -41 44 C-41.66 44 -42.32 44 -43 44 C-43.53823988 32.8763758 -40.71577013 24.85036699 -34 16 C-33.071875 14.74316406 -33.071875 14.74316406 -32.125 13.4609375 C-24.46883636 4.59442446 -11.62752859 -0.87754933 0 0 Z " fill="#000000" transform="translate(829,287)"/>
<path d="M0 0 C-0.39181037 12.67506556 -2.74161951 21.08527119 -12 30 C-16.12043917 33.26201434 -19.84239686 34.94937714 -25 36 C-26.32 35.67 -27.64 35.34 -29 35 C-26.03 31.04 -23.06 27.08 -20 23 C-24.07770179 27.04781328 -24.07770179 27.04781328 -27.8125 31.3125 C-28.534375 32.199375 -29.25625 33.08625 -30 34 C-32 32 -32 32 -32.15234375 29.96875 C-31.39673532 21.28612219 -28.70397453 14.16674462 -22.25 8.125 C-15.77451461 2.92498901 -8.3356485 -0.23154579 0 0 Z " fill="#000000" transform="translate(380,295)"/>
<path d="M0 0 C5.63927603 1.36709722 8.84069169 5.39579476 12 10 C15.87967227 17.61187161 17.4928437 25.26748018 15.31640625 33.625 C14.61118739 35.78452187 13.85400649 37.895484 13 40 C12.34 40 11.68 40 11 40 C9.68 35.71 8.36 31.42 7 27 C7.66 31.62 8.32 36.24 9 41 C2.9280942 38.57123768 -0.14120602 35.74533116 -3.046875 29.890625 C-6.80411699 19.89494347 -5.14397548 11.58606377 -1 2 C-0.67 1.34 -0.34 0.68 0 0 Z " fill="#000000" transform="translate(629,297)"/>
<path d="M0 0 C3.8476082 11.78330012 3.23543926 24.50345215 -2.2890625 35.5859375 C-7.71688156 45.25151904 -13.87273805 50.57823774 -24 55 C-25 53 -25 53 -24.28735352 50.84521484 C-23.90506592 49.97590332 -23.52277832 49.1065918 -23.12890625 48.2109375 C-22.51499023 46.79941406 -22.51499023 46.79941406 -21.88867188 45.359375 C-21.45103516 44.37453125 -21.01339844 43.3896875 -20.5625 42.375 C-20.12873047 41.38242187 -19.69496094 40.38984375 -19.24804688 39.3671875 C-18.17229113 36.90831723 -17.08935634 34.45286789 -16 32 C-18.02921471 34.60352076 -19.73322654 37.18530294 -21.26171875 40.109375 C-21.65810547 40.86347656 -22.05449219 41.61757813 -22.46289062 42.39453125 C-22.86701172 43.17183594 -23.27113281 43.94914062 -23.6875 44.75 C-24.10322266 45.54277344 -24.51894531 46.33554687 -24.94726562 47.15234375 C-25.96799486 49.09994207 -26.9854562 51.04917449 -28 53 C-28.66 53 -29.32 53 -30 53 C-33.49772971 43.62608437 -32.90103594 34.21641198 -29.37890625 24.9140625 C-24.45669032 14.51187246 -12.70166025 0 0 0 Z " fill="#000000" transform="translate(781,299)"/>
<path d="M0 0 C4.8795132 3.96460447 8.81873389 8.81864748 11.6875 14.42578125 C11.6875 15.41578125 11.6875 16.40578125 11.6875 17.42578125 C5.17041716 16.45619642 -0.41041119 13.22778301 -6.3125 10.42578125 C-1.0325 13.39578125 4.2475 16.36578125 9.6875 19.42578125 C9.6875 20.08578125 9.6875 20.74578125 9.6875 21.42578125 C1.46549679 23.61831544 -6.60030453 22.91110035 -14.3125 19.42578125 C-17.5625 17.48828125 -17.5625 17.48828125 -20.3125 15.42578125 C-21.1375 14.86890625 -21.9625 14.31203125 -22.8125 13.73828125 C-27.6270674 9.28480641 -31.18432074 3.6287682 -33.3125 -2.57421875 C-33.3125 -3.56421875 -33.3125 -4.55421875 -33.3125 -5.57421875 C-21.25802624 -8.3230894 -10.28936117 -7.00441309 0 0 Z " fill="#000000" transform="translate(232.3125,309.57421875)"/>
<path d="M0 0 C6.10347718 2.5650389 8.72162491 8.06679581 11.2734375 13.921875 C15.35918215 25.57059379 15.72251544 37.76786898 11.27734375 49.36328125 C9.36925274 53.30200123 7.15065994 56.93335766 4 60 C2.515 60.495 2.515 60.495 1 61 C-0.20270964 58.59458071 -0.20316663 56.89633409 -0.31640625 54.2109375 C-0.35451416 53.36321777 -0.39262207 52.51549805 -0.43188477 51.64208984 C-0.47498779 50.5639502 -0.51809082 49.48581055 -0.5625 48.375 C-0.706875 44.95125 -0.85125 41.5275 -1 38 C-1.66 45.59 -2.32 53.18 -3 61 C-10.63097689 53.36902311 -14.8432741 44.63995118 -15.3125 33.75 C-14.91452796 20.14872011 -8.9625765 9.81615521 0 0 Z " fill="#000000" transform="translate(299,303)"/>
<path d="M0 0 C-2.40789826 7.70527444 -8.04091138 14.3153806 -15.078125 18.125 C-22.52948289 21.58627593 -31.10068073 22.63310642 -39 20 C-39 19.34 -39 18.68 -39 18 C-34.71 15.69 -30.42 13.38 -26 11 C-28.908125 12.2375 -28.908125 12.2375 -31.875 13.5 C-37.75 16 -37.75 16 -40 16 C-39.17208479 10.11260293 -36.36133596 6.88984018 -32 3 C-21.35315401 -3.73913891 -11.61745299 -4.51789839 0 0 Z " fill="#000000" transform="translate(867,311)"/>
<path d="M0 0 C4.18920879 1.39640293 4.92850974 3.67224969 6.91796875 7.46484375 C9.69020597 13.96008547 9.59705118 20.45927851 7 27 C3.71794872 32.64102564 3.71794872 32.64102564 1 34 C0.67 31.03 0.34 28.06 0 25 C-0.33 27.97 -0.66 30.94 -1 34 C-4 33 -4 33 -5.16796875 31.25 C-8.65660826 23.5509335 -9.23008083 17.73235937 -6.25 9.75 C-4.62821521 6.03147916 -2.78986117 2.98913696 0 0 Z " fill="#000000" transform="translate(558,313)"/>
<path d="M0 0 C4.32490501 3.65416046 7.54443027 6.9010328 9.54296875 12.23046875 C8.85589844 12.01390625 8.16882813 11.79734375 7.4609375 11.57421875 C6.55988281 11.29578125 5.65882813 11.01734375 4.73046875 10.73046875 C3.83714844 10.45203125 2.94382812 10.17359375 2.0234375 9.88671875 C-0.5127652 9.10258524 -0.5127652 9.10258524 -3.45703125 9.23046875 C0.17296875 10.88046875 3.80296875 12.53046875 7.54296875 14.23046875 C7.54296875 14.89046875 7.54296875 15.55046875 7.54296875 16.23046875 C0.49969122 19.04777976 -6.02646052 19.05862039 -13.0859375 16.46484375 C-20.86632539 12.41442765 -26.23702846 6.28047572 -29.45703125 -1.76953125 C-20.93156446 -7.45317577 -8.08169773 -5.82036419 0 0 Z " fill="#000000" transform="translate(444.45703125,318.76953125)"/>
<path d="M0 0 C7.8522099 0.19994053 12.96277952 2.32084785 18.76171875 7.60546875 C22.69777285 11.77025238 24.01544223 15.38802073 25 21 C21.48283697 21 20.62878252 20.17554415 18 18 C18.825 18.78375 19.65 19.5675 20.5 20.375 C23 23 23 23 23 25 C15.73152563 24.96634966 11.15883253 23.15883253 6 18 C1.22758464 12.46968245 0.16215792 7.1939148 0 0 Z " fill="#000000" transform="translate(320,320)"/>
<path d="M0 0 C1.8253125 0.0309375 1.8253125 0.0309375 3.6875 0.0625 C2.46063554 11.74517953 -0.42308617 21.90172664 -9.3125 30.0625 C-16.33452787 35.35364725 -22.56423248 37.3641644 -31.3125 37.0625 C-29.77606148 33.38180113 -27.53099055 31.07474796 -24.6875 28.3125 C-23.87023437 27.51328125 -23.05296875 26.7140625 -22.2109375 25.890625 C-21.58445312 25.28734375 -20.95796875 24.6840625 -20.3125 24.0625 C-24.66891143 25.9142185 -27.24054984 28.96377449 -30.41015625 32.3828125 C-32.3125 34.0625 -32.3125 34.0625 -35.3125 34.0625 C-34.03755634 23.88197974 -31.05201716 15.84547333 -23.47265625 8.69921875 C-16.58128922 3.47773089 -8.71703487 -0.14774635 0 0 Z " fill="#000000" transform="translate(598.3125,322.9375)"/>
<path d="M0 0 C-1.43292618 9.02743496 -4.72168678 15.69293094 -12 21.4375 C-18.88356535 26.11728737 -24.87352134 26.26027868 -33 26 C-29.78875342 21.63270466 -26.15358254 18.43469325 -22 15 C-25.96 17.64 -29.92 20.28 -34 23 C-35.26523433 17.93906268 -34.20614511 16.61047113 -31.65234375 12.31640625 C-23.22219282 0.49825139 -13.44614951 -0.46724072 0 0 Z " fill="#000000" transform="translate(387,330)"/>
<path d="M0 0 C3.81601007 3.43440906 5.66992353 6.10432912 6.2578125 11.26171875 C6.53824527 17.36580534 5.56599174 21.97628867 2 27 C-0.25 29 -0.25 29 -2 30 C-2.33 28.02 -2.66 26.04 -3 24 C-3.33 25.98 -3.66 27.96 -4 30 C-4.66 30 -5.32 30 -6 30 C-8.97528259 24.29737503 -9.90542058 19.41842592 -9 13 C-7.23210779 7.54424663 -4.23906588 3.76805856 0 0 Z " fill="#000000" transform="translate(412,330)"/>
<path d="M0 0 C5.63214005 4.77102773 10.04366591 8.72455213 12 16 C10.80503906 15.72285156 9.61007812 15.44570313 8.37890625 15.16015625 C6.77349691 14.79401026 5.16802475 14.4281396 3.5625 14.0625 C2.77939453 13.88009766 1.99628906 13.69769531 1.18945312 13.50976562 C0.40634766 13.33251953 -0.37675781 13.15527344 -1.18359375 12.97265625 C-1.89056396 12.81031494 -2.59753418 12.64797363 -3.32592773 12.48071289 C-7.18657652 11.78669139 -11.10145702 11.43317144 -15 11 C-6.75 13.64 1.5 16.28 10 19 C10 19.66 10 20.32 10 21 C8.41800369 21.64910154 6.83434276 22.29414694 5.25 22.9375 C3.92742187 23.47697266 3.92742187 23.47697266 2.578125 24.02734375 C-8.92490692 28.36712397 -22.93467507 26.89067165 -34 22 C-44.17246985 16.70602689 -51.67838084 9.48242874 -58 0 C-44.53773289 -15.19374841 -14.48094239 -10.23063629 0 0 Z " fill="#000000" transform="translate(255,343)"/>
<path d="M0 0 C7.12021062 6.16193501 7.12021062 6.16193501 9.49609375 10.16015625 C8.49609375 13.16015625 8.49609375 13.16015625 6.0546875 14.6953125 C-7.17955775 21.17164528 -19.94262552 23.57831117 -34.37890625 19.59765625 C-43.66254696 16.33055097 -50.58598646 10.94689281 -56.50390625 3.16015625 C-56.50390625 2.83015625 -56.50390625 2.50015625 -56.50390625 2.16015625 C-48.58390625 2.49015625 -40.66390625 2.82015625 -32.50390625 3.16015625 C-40.15068428 1.3704848 -47.79106878 -0.35995394 -55.50390625 -1.83984375 C-41.41677929 -17.29166113 -14.37692217 -11.1635027 0 0 Z " fill="#000000" transform="translate(845.50390625,346.83984375)"/>
<path d="M0 0 C0.66 0.66 1.32 1.32 2 2 C1.47644031 7.15011774 -2.39428548 10.61557481 -6 14 C-13.95456484 19.7212643 -21.12434991 22.35872179 -30.875 22.375 C-31.63941406 22.39949219 -32.40382813 22.42398437 -33.19140625 22.44921875 C-39.12462511 22.47943888 -42.86793402 20.95765989 -48 18 C-48 17.34 -48 16.68 -48 16 C-39.585 13.525 -39.585 13.525 -31 11 C-35.39453125 11.73242188 -35.39453125 11.73242188 -39.7890625 12.46484375 C-42.859375 12.9765625 -45.9296875 13.48828125 -49 14 C-45.54876311 6.11145854 -39.21986921 1.46220246 -31.515625 -2.171875 C-20.96191547 -5.82773516 -9.94671196 -4.96429704 0 0 Z " fill="#000000" transform="translate(699,345)"/>
<path d="M0 0 C3 1 3 1 4.5703125 3.58203125 C5.08335937 4.64808594 5.59640625 5.71414063 6.125 6.8125 C6.90230469 8.39998047 6.90230469 8.39998047 7.6953125 10.01953125 C11.25404381 18.14920786 11.18485499 27.40606337 8.4375 35.8125 C6.17021753 41.36287249 2.51954365 47.24022817 -3 50 C-3 44.06 -3 38.12 -3 32 C-3.99 37.61 -4.98 43.22 -6 49 C-6.66 49 -7.32 49 -8 49 C-8.82011312 47.44148245 -9.63076213 45.87798284 -10.4375 44.3125 C-10.88996094 43.44238281 -11.34242188 42.57226562 -11.80859375 41.67578125 C-15.26207168 33.91960951 -14.71863737 25.55322817 -12.1171875 17.625 C-9.27412815 10.94480459 -5.27238722 4.98269562 0 0 Z " fill="#000000" transform="translate(722,342)"/>
<path d="M0 0 C4.73257584 2.29867969 7.47101904 5.47701482 10 10 C12.21550787 17.03423749 11.19862908 22.60274185 8 29 C7.34 28.67 6.68 28.34 6 28 C5.375 25.4375 5.375 25.4375 5 23 C5 24.98 5 26.96 5 29 C0.78220697 27.49364535 -0.7747674 24.75987578 -3 21 C-4.67695614 15.96913159 -4.95382409 10.59490135 -3.10546875 5.56640625 C-2.14852109 3.66941813 -1.08317266 1.82785386 0 0 Z " fill="#000000" transform="translate(536,345)"/>
<path d="M0 0 C0 4.0582485 -2.03843427 6.13014151 -4.375 9.25 C-5.30219454 10.52631825 -6.22793402 11.80369458 -7.15234375 13.08203125 C-8.52627035 14.97275166 -9.90031119 16.86336119 -11.27783203 18.75146484 C-37.64080783 55.25646957 -52.68570724 108.51076616 -45.5625 153.375 C-44.85319117 157.62106057 -44.07589579 161.82981632 -43 166 C-39.85297299 164.64259135 -38.20237065 163.26308184 -36.125 160.5625 C-31.36918953 154.92522466 -25.52174022 150.70944575 -19.67431641 146.27783203 C-16.66698012 143.98264421 -13.72464526 141.60401858 -10.76953125 139.2421875 C-9 138 -9 138 -6 137 C-5.28758439 135.69053972 -4.62845236 134.35176546 -4 133 C-2.8435439 131.43491161 -1.65408175 129.89382231 -0.4375 128.375 C2.0196581 125.33933997 2.0196581 125.33933997 4 122 C4.66 122.33 5.32 122.66 6 123 C1.98326449 135.33279094 -4.32446884 144.73276523 -12.6875 154.5625 C-27.29413358 172.1006569 -28.65724621 193.98528038 -26.74951172 215.87402344 C-26.44725332 218.46868054 -26.09171873 221.04437711 -25.6875 223.625 C-25.51105957 224.7682373 -25.51105957 224.7682373 -25.33105469 225.93457031 C-24.55220092 230.35471485 -23.5419197 234.21911257 -21 238 C-18.60556046 239.18210807 -18.60556046 239.18210807 -16 239 C-13.94997864 238.22226569 -13.94997864 238.22226569 -12.0625 236.75 C-11.28261719 236.19441406 -10.50273438 235.63882813 -9.69921875 235.06640625 C-7.14667624 233.11228905 -4.63819127 231.11359683 -2.1340332 229.09838867 C7.04986382 221.73215122 16.55095677 215.61905526 27.1484375 210.46484375 C28.4785083 209.81721069 28.4785083 209.81721069 29.83544922 209.15649414 C31.5614769 208.32637509 33.2945852 207.51075774 35.03564453 206.71264648 C44.49833674 202.20917978 51.01798042 195.156847 55.0546875 185.46875 C56.39381103 180.55494135 56.78734111 175.61872664 57.3125 170.5625 C58.46346621 160.78878121 60.04832887 152.07159012 64 143 C64.58128662 141.66291992 64.58128662 141.66291992 65.17431641 140.29882812 C77.31944444 112.84027778 77.31944444 112.84027778 85 109 C83.03991642 119.87176796 80.55815097 130.13432854 76.46264648 140.4152832 C73.34284874 148.30643412 71.62177603 155.80821707 71.6875 164.3125 C71.69160889 165.40836426 71.69160889 165.40836426 71.69580078 166.52636719 C71.85154141 174.69290464 73.56024752 182.56444482 77 190 C79.26601865 191.29042763 79.26601865 191.29042763 82 192 C82.89332031 192.33902344 83.78664063 192.67804688 84.70703125 193.02734375 C101.38511124 197.95360937 120.28491969 190.85571728 135 183 C138.8972246 180.57818795 142.46127505 177.91590936 146 175 C147.13115234 174.11248047 147.13115234 174.11248047 148.28515625 173.20703125 C153.549169 168.85284786 157.57668441 163.8832069 161.70532227 158.49462891 C176.97306787 138.65685604 195.34015752 123.44994374 219 115 C219 118 219 118 217.19921875 119.9453125 C215.95591797 121.02425781 215.95591797 121.02425781 214.6875 122.125 C213.76710938 122.929375 212.84671875 123.73375 211.8984375 124.5625 C209.23840638 126.7995073 206.53582404 128.96596833 203.8125 131.125 C192.23932893 140.53740929 182.25323923 151.34743735 173.31494141 163.25732422 C171.06153165 166.24374064 168.74871057 169.18323837 166.4375 172.125 C165.98737549 172.70121094 165.53725098 173.27742187 165.07348633 173.87109375 C162.81619817 176.74792595 160.52497517 179.58507599 158.15625 182.37109375 C157.69935791 182.90911621 157.24246582 183.44713867 156.77172852 184.00146484 C155.51975903 185.46625769 154.25825051 186.92288221 152.99609375 188.37890625 C151.07458142 190.90206628 150.10246372 193.05732906 149 196 C153.84921952 197.78665615 158.70161079 199.56433555 163.55688477 201.33447266 C165.20129576 201.93532438 166.84488145 202.53844064 168.48754883 203.14404297 C190.33161154 211.19290934 211.85417059 215.69895263 235 218 C219.64415514 227.59740304 190.04807597 220.26133421 173.55371094 217.57763672 C150.3864716 213.75315207 150.3864716 213.75315207 127 212 C126.04609375 211.9484375 125.0921875 211.896875 124.109375 211.84375 C104.06863203 211.17199325 81.73205715 216.05455475 63.86328125 225.1171875 C62 226 62 226 60 226 C60.99589309 227.17017438 61.99705335 228.3358655 63 229.5 C63.8353125 230.47453125 63.8353125 230.47453125 64.6875 231.46875 C66.66652075 233.63497542 68.70496482 235.65329157 70.8125 237.69140625 C75.0769543 241.92920772 78.53043935 246.54281854 82 251.4375 C92.01755406 265.23646226 102.07775711 275.37845733 117.13671875 283.80859375 C119 285 119 285 120 287 C100.05952403 283.41071433 84.87356732 268.4728187 72.1875 253.625 C66.43986097 246.93330432 59.97900937 240.82019744 50.953125 239.58203125 C38.52799627 239.04244233 30.59657454 244.46487954 21.58935547 252.53515625 C12.32341236 261.07519598 3.73945862 270.04727893 -4 280 C-4.88839899 281.08905924 -5.77914983 282.17620294 -6.671875 283.26171875 C-32.56201466 314.99714871 -45.62333191 354.06875595 -41.57421875 395.0546875 C-38.55977903 419.22304601 -28.62120806 441.44826325 -13 460 C-11.92298828 461.30517578 -11.92298828 461.30517578 -10.82421875 462.63671875 C-5.32059618 469.04587337 0.90684341 474.39346557 7.43115234 479.71728516 C9.96969794 481.79284049 12.48314865 483.89822159 15 486 C14.67 486.66 14.34 487.32 14 488 C-87.0945566 494.29033546 -87.0945566 494.29033546 -100 486 C-100.8825498 483.23919819 -101.38588934 480.93548683 -101.765625 478.09765625 C-101.88935486 477.30532089 -102.01308472 476.51298553 -102.14056396 475.69664001 C-102.53180147 473.15464092 -102.89082753 470.60920613 -103.25 468.0625 C-103.50579633 466.38185336 -103.76358757 464.70150905 -104.0234375 463.02148438 C-110.79289119 418.62027096 -104.85194442 377.40843253 -92.62817383 334.46606445 C-92.30099365 333.31581787 -91.97381348 332.16557129 -91.63671875 330.98046875 C-91.34498779 329.96879639 -91.05325684 328.95712402 -90.75268555 327.91479492 C-87.0944795 313.7482941 -87.04547351 297.24301966 -94.5078125 284.40625 C-99.90365286 276.27484406 -107.09442179 266.4527891 -116 262 C-121.49425071 261.35361756 -124.03233775 262.33002469 -128.25366211 265.49755859 C-131.00106873 267.86125779 -133.05974322 270.58332264 -135.1875 273.5 C-143.6729624 284.66453708 -152.78539402 294.50457395 -164 303 C-164.92941406 303.721875 -165.85882813 304.44375 -166.81640625 305.1875 C-177.68722466 313.41243076 -177.68722466 313.41243076 -184 315 C-186.25390625 314.58984375 -186.25390625 314.58984375 -188 314 C-186.66704985 312.81206989 -185.33361301 311.6246859 -184 310.4375 C-183.17242187 309.695 -182.34484375 308.9525 -181.4921875 308.1875 C-180.027736 306.90208803 -178.54104684 305.64003673 -177.0078125 304.4375 C-165.40734244 295.19563174 -158.22684165 281.32842068 -150.8125 268.75 C-150.42466339 268.09513611 -150.03682678 267.44027222 -149.63723755 266.76556396 C-148.52725122 264.88484293 -147.42769865 262.99846658 -146.33203125 261.109375 C-145.68983643 260.00561523 -145.0476416 258.90185547 -144.38598633 257.76464844 C-142.77591967 255.06845855 -142.77591967 255.06845855 -143 252 C-169.48302947 241.93479877 -198.3229501 239.61832433 -226 246 C-226.87978516 246.19335938 -227.75957031 246.38671875 -228.66601562 246.5859375 C-248.21673217 250.92756338 -267.22865133 257.10904241 -285.61035156 265.06225586 C-288 266 -288 266 -290 266 C-288.88774304 262.66322912 -288.39562386 262.30115628 -285.59765625 260.43359375 C-284.8811792 259.95293457 -284.16470215 259.47227539 -283.42651367 258.97705078 C-282.2563269 258.21497314 -282.2563269 258.21497314 -281.0625 257.4375 C-279.85654175 256.64448486 -279.85654175 256.64448486 -278.6262207 255.83544922 C-270.32136975 250.44541751 -261.769207 245.58853855 -253 241 C-251.98679687 240.45988281 -250.97359375 239.91976562 -249.9296875 239.36328125 C-241.01069118 234.92808553 -231.50362328 232.07378575 -222.02758789 229.07006836 C-220.30463501 228.5171814 -220.30463501 228.5171814 -218.546875 227.953125 C-217.50370117 227.62473633 -216.46052734 227.29634766 -215.38574219 226.95800781 C-212.84578681 226.24437492 -212.84578681 226.24437492 -212 224 C-214.08409466 217.23424343 -218.696816 211.58652554 -222.875 206 C-228.34840032 198.65941701 -233.00647447 191.03668048 -237.5 183.0625 C-245.96463906 168.09896434 -254.74339957 153.73640548 -266.7578125 141.34765625 C-268.6958017 139.31850728 -270.37826361 137.2842104 -272 135 C-265.84995158 135.83316164 -261.84457983 139.35093745 -257 143 C-256.42765625 143.42667969 -255.8553125 143.85335937 -255.265625 144.29296875 C-245.10700054 152.29425091 -237.12393391 164.13814762 -230.0625 174.875 C-220.1828185 189.88261238 -209.88434309 202.99744594 -195.5625 214 C-195.00272461 214.44504883 -194.44294922 214.89009766 -193.86621094 215.34863281 C-183.41390425 223.02775864 -169.67326442 224.0601973 -157.1875 225.75 C-155.60858759 225.97168716 -154.02981015 226.19433785 -152.45117188 226.41796875 C-148.6355742 226.95639593 -144.8184061 227.48188141 -141 228 C-141.17390259 227.17592651 -141.17390259 227.17592651 -141.35131836 226.33520508 C-141.88031476 223.82769342 -142.40891088 221.32009754 -142.9375 218.8125 C-143.21110352 217.51602539 -143.21110352 217.51602539 -143.49023438 216.19335938 C-143.843951 214.51481321 -144.19501272 212.83570504 -144.54321289 211.15600586 C-144.87386356 209.59535591 -145.23595221 208.04125747 -145.6171875 206.4921875 C-146.23890747 202.44466364 -146.18441903 198.40094526 -146.1875 194.3125 C-146.19974609 193.44560547 -146.21199219 192.57871094 -146.22460938 191.68554688 C-146.22654297 190.85732422 -146.22847656 190.02910156 -146.23046875 189.17578125 C-146.23457764 188.42208252 -146.23868652 187.66838379 -146.24291992 186.8918457 C-146 185 -146 185 -144 183 C-143.5978125 184.65322266 -143.5978125 184.65322266 -143.1875 186.33984375 C-136.16054135 214.03215515 -122.67408137 233.81031026 -98 249 C-88.96002497 254.75490682 -88.96002497 254.75490682 -79 258 C-74.4977793 256.63325443 -71.30960811 255.30243881 -68.83984375 251.0625 C-64.82353647 241.19919655 -63.86056043 230.13259282 -63.796875 219.57421875 C-63.78628555 218.40279327 -63.78628555 218.40279327 -63.77548218 217.20770264 C-63.42103052 193.91995877 -63.42103052 193.91995877 -67 171 C-67.19867676 170.18966309 -67.39735352 169.37932617 -67.60205078 168.54443359 C-74.94992433 139.29054001 -87.9678883 111.75689788 -101.31689453 84.83203125 C-104.36156035 78.63690377 -107.02062221 72.61677718 -109 66 C-92.44678282 71.99041251 -78.19262791 90.72874131 -68.00390625 104.4375 C-66.25535356 107.05110602 -66.25535356 107.05110602 -64 108 C-63.57811401 106.91199097 -63.57811401 106.91199097 -63.14770508 105.80200195 C-62.07752972 103.18928069 -60.90083322 100.6914725 -59.63671875 98.16796875 C-54.00378506 86.76736075 -48.81962967 75.3441494 -44.13946533 63.52520752 C-34.64922816 39.5667189 -22.22862216 14.71559623 0 0 Z " fill="#000000" transform="translate(557,239)"/>
<path d="M0 0 C9.87692644 5.24081811 16.37893699 11.13681097 20 22 C20.09435979 23.99820728 20.12990301 25.99957203 20.125 28 C20.12886719 29.5778125 20.12886719 29.5778125 20.1328125 31.1875 C20 34 20 34 19 37 C14.60841671 35.5361389 14.12052567 33.02168662 12 29 C12.99 32.3 13.98 35.6 15 39 C8.82295061 37.49340259 4.09749941 34.34209997 0.703125 28.93359375 C-3.11022796 21.4312363 -4.50458082 13.74714882 -2.328125 5.43359375 C-1.62939544 3.59118892 -0.82573376 1.7890898 0 0 Z " fill="#000000" transform="translate(389,356)"/>
<path d="M0 0 C0.56458201 14.2556958 0.1429898 25.9534031 -10 37 C-15.5874584 42.84484612 -21.1301294 46.84075753 -29 49 C-29.99 49 -30.98 49 -32 49 C-30.36047417 44.3606824 -27.93128948 40.36144142 -25.375 36.1875 C-24.95476562 35.49462891 -24.53453125 34.80175781 -24.1015625 34.08789062 C-23.0710533 32.38989252 -22.03598319 30.69466386 -21 29 C-24.68398399 32.47181737 -27.47173036 35.98461325 -30.1875 40.25 C-33.78692927 45.89346464 -33.78692927 45.89346464 -36 47 C-38.41900058 37.02162262 -36.28745513 27.89317994 -31.3046875 18.9609375 C-24.43892524 8.87076868 -12.85144979 -0.56864822 0 0 Z " fill="#000000" transform="translate(449,363)"/>
<path d="M0 0 C-0.16059426 7.12454519 -1.1468443 12.58084352 -6 18 C-11.17118871 22.52901495 -16.22362869 23.82745351 -23 24 C-21.61918777 19.8575633 -19.40174442 18.67796901 -16 16 C-18.85306797 18.32472205 -21.54074837 19.7508258 -25 21 C-23.38930595 13.21497875 -20.88392293 7.53713102 -14 3 C-9.29154821 0.72863506 -5.29354426 -0.39701582 0 0 Z " fill="#000000" transform="translate(340,368)"/>
<path d="M0 0 C2.49358174 0.94787571 4.76809066 2.02495028 7.1015625 3.31640625 C7.86984375 3.74050781 8.638125 4.16460937 9.4296875 4.6015625 C18.52515766 10.15474921 25.49122371 18.23885189 29.1015625 28.31640625 C29.70931515 31.37331135 29.95028954 34.19009843 30.1015625 37.31640625 C13.89965422 38.06514656 -0.16055044 35.39778525 -12.6484375 24.19140625 C-17.94946564 18.56377448 -21.69731062 10.94216527 -22.8984375 3.31640625 C-17.86006849 5.13981599 -13.39404097 7.85080747 -8.80664062 10.5703125 C-5.57030747 12.62955332 -5.57030747 12.62955332 -1.8984375 13.31640625 C-2.94644531 12.62933594 -3.99445312 11.94226563 -5.07421875 11.234375 C-6.45324717 10.32440387 -7.83214669 9.41423737 -9.2109375 8.50390625 C-9.90123047 8.05208984 -10.59152344 7.60027344 -11.30273438 7.13476562 C-12.30336914 6.47250977 -12.30336914 6.47250977 -13.32421875 5.796875 C-14.24328003 5.19202271 -14.24328003 5.19202271 -15.1809082 4.57495117 C-16.9354454 3.28928816 -18.40296782 1.89195463 -19.8984375 0.31640625 C-14.59955602 -2.33303449 -5.64912116 -1.3323399 0 0 Z " fill="#000000" transform="translate(786.8984375,371.68359375)"/>
<path d="M0 0 C5.33774491 3.05389012 9.98250836 7.2029818 13.75 12.0625 C13.75 13.0525 13.75 14.0425 13.75 15.0625 C5.58565896 19.10854512 -2.10318247 20.73812759 -11.05859375 18.296875 C-17.3731573 15.93243219 -22.56627558 12.87890698 -26.25 7.0625 C-26.25 6.4025 -26.25 5.7425 -26.25 5.0625 C-21.63 5.7225 -17.01 6.3825 -12.25 7.0625 C-16.54 5.7425 -20.83 4.4225 -25.25 3.0625 C-25.25 2.4025 -25.25 1.7425 -25.25 1.0625 C-17.44323228 -3.29476571 -8.19697017 -3.69566986 0 0 Z " fill="#000000" transform="translate(586.25,375.9375)"/>
<path d="M0 0 C0.79921875 0.00902344 1.5984375 0.01804687 2.421875 0.02734375 C3.02515625 0.03894531 3.6284375 0.05054688 4.25 0.0625 C5.57494247 4.03732742 4.56298601 5.22827863 2.75 8.9375 C-0.58087366 15.35855481 -3.76710155 18.73486718 -10.75 21.0625 C-12.47795352 21.13052967 -14.20835365 21.14745645 -15.9375 21.125 C-16.83855469 21.11597656 -17.73960937 21.10695313 -18.66796875 21.09765625 C-19.35503906 21.08605469 -20.04210937 21.07445312 -20.75 21.0625 C-19.1 19.4125 -17.45 17.7625 -15.75 16.0625 C-16.74 16.3925 -17.73 16.7225 -18.75 17.0625 C-20.08106622 17.40477417 -21.41400079 17.74001743 -22.75 18.0625 C-20.58285671 10.47749849 -17.43192385 6.0756142 -10.75 2.04296875 C-7.13556002 0.27104603 -3.99806952 -0.05879514 0 0 Z " fill="#000000" transform="translate(842.75,374.9375)"/>
<path d="M0 0 C1.75 1.5 1.75 1.5 2.75 4.5 C-7.15 4.995 -7.15 4.995 -17.25 5.5 C-10.65 6.16 -4.05 6.82 2.75 7.5 C-1.765625 13.14453125 -1.765625 13.14453125 -6.25 15.25 C-7.095625 15.65734375 -7.94125 16.0646875 -8.8125 16.484375 C-17.27253664 20.00939027 -28.5273655 19.80785619 -37.1875 16.9375 C-42.37567709 14.7285943 -47.47793662 11.74706395 -51.25 7.5 C-51.25 3.5 -51.25 3.5 -49.81640625 1.9375 C-33.82952645 -9.53067108 -16.66452416 -11.10968277 0 0 Z " fill="#000000" transform="translate(291.25,387.5)"/>
<path d="M0 0 C2.1875 1.9375 2.1875 1.9375 3 4 C2.28113199 8.55283074 -0.7680392 10.93060617 -4.1796875 13.70703125 C-6.33911399 15.24087281 -8.46674909 16.23234821 -11 17 C-10.45859375 17.87011719 -10.45859375 17.87011719 -9.90625 18.7578125 C-7.20097338 23.31169481 -5.29844189 26.52784676 -6 32 C-10.81232093 32.19249284 -14.59019427 32.01317218 -19 30 C-20.68762851 28.3545622 -22.3540349 26.68711423 -24 25 C-27.16645474 23.20679176 -27.16645474 23.20679176 -30 22 C-29.3503125 22.56589844 -28.700625 23.13179688 -28.03125 23.71484375 C-27.1959375 24.44832031 -26.360625 25.18179687 -25.5 25.9375 C-24.6646875 26.66839844 -23.829375 27.39929688 -22.96875 28.15234375 C-21.99421875 29.06693359 -21.99421875 29.06693359 -21 30 C-21 30.33 -21 30.66 -21 31 C-30.45794425 31.4503783 -37.74031086 29.76854341 -45.2109375 23.7265625 C-50.72232891 18.40770878 -52.84513383 12.44630125 -54 5 C-45.68219944 4.53718575 -39.25654061 4.70739851 -32 9 C-31.39027344 9.35835938 -30.78054688 9.71671875 -30.15234375 10.0859375 C-26.22090517 12.55818966 -26.22090517 12.55818966 -25 15 C-23.68 14.01 -22.36 13.02 -21 12 C-22.65 10.68 -24.3 9.36 -26 8 C-25.835 7.4225 -25.67 6.845 -25.5 6.25 C-24.85537969 3.73335631 -24.85537969 3.73335631 -25 0 C-18.05324138 -6.94675862 -7.6070541 -4.40090008 0 0 Z " fill="#000000" transform="translate(697,387)"/>
<path d="M0 0 C1.03497612 1.30636986 2.04664539 2.63292547 3 4 C2.00225828 6.55872472 1.35661889 7.78313716 -1.0234375 9.23046875 C-1.79945313 9.54628906 -2.57546875 9.86210937 -3.375 10.1875 C-4.53128906 10.67283203 -4.53128906 10.67283203 -5.7109375 11.16796875 C-15.05482646 14.56429699 -25.38231791 14.079485 -34.51953125 10.2734375 C-40.1536773 7.38094677 -44.13931083 4.72137834 -47 -1 C-41.39 -1 -35.78 -1 -30 -1 C-35.28 -1.99 -40.56 -2.98 -46 -4 C-46 -4.66 -46 -5.32 -46 -6 C-29.20773294 -14.9934869 -14.12214505 -12.93112077 0 0 Z " fill="#000000" transform="translate(890,397)"/>
<path d="M0 0 C5.29210514 2.48665181 8.91688169 5.17472811 12.09375 10.09375 C12.42375 11.74375 12.75375 13.39375 13.09375 15.09375 C8.14375 13.11375 8.14375 13.11375 3.09375 11.09375 C7.54875 13.56875 7.54875 13.56875 12.09375 16.09375 C11.76375 16.75375 11.43375 17.41375 11.09375 18.09375 C3.60455932 18.54310144 -2.76069863 18.82516374 -8.90625 14.09375 C-13.32247857 9.98359667 -16.55363283 6.10538185 -17.90625 0.09375 C-12.77077153 -2.47398923 -5.32452151 -1.66033466 0 0 Z " fill="#000000" transform="translate(215.90625,388.90625)"/>
<path d="M0 0 C1.8125 0.5 1.8125 0.5 4 2 C7.39986148 8.79972295 8.21705093 15.27619214 6.30859375 22.68359375 C4.27818685 28.4010157 2.0058497 31.58692066 -3 35 C-3.91058531 31.92677456 -4.08886184 29.19902639 -4 26 C-4.66 28.97 -5.32 31.94 -6 35 C-6.66 35 -7.32 35 -8 35 C-10.92327738 27.79620931 -12.72802214 20.87828471 -10.05078125 13.3203125 C-7.71418382 8.35227885 -5.15390396 4.57697286 -1 1 C-0.67 0.67 -0.34 0.34 0 0 Z " fill="#000000" transform="translate(345,389)"/>
<path d="M0 0 C7.13722256 2.52776632 12.61133806 6.53258751 16.9375 12.8125 C18.36783342 17.10350026 19.17141742 21.46151966 19 26 C18.34 26.66 17.68 27.32 17 28 C15.35 25.69 13.7 23.38 12 21 C12.495 21.94875 12.99 22.8975 13.5 23.875 C15 27 15 27 15 29 C10.44122733 28.4636738 7.55962774 26.8779969 4 24 C0.08921251 18.67835879 -1.1424949 13.86560749 -1.125 7.375 C-1.12757813 6.41335938 -1.13015625 5.45171875 -1.1328125 4.4609375 C-1 2 -1 2 0 0 Z M10 18 C11 20 11 20 11 20 Z " fill="#000000" transform="translate(386,400)"/>
<path d="M0 0 C8.50380192 0.39369453 14.74765588 2.33027887 20.75 8.5625 C25.32991195 14.14852533 28 20.77488467 28 28 C19.32450344 28.4732089 12.9601653 26.96378957 6.1875 21.3125 C1.31552394 16.67049484 -1.76437716 12.29871976 -2.25 5.5 C-2.1675 4.675 -2.085 3.85 -2 3 C1.60513403 5.06007659 4.80331012 7.3513141 8 10 C7.236875 9.236875 6.47375 8.47375 5.6875 7.6875 C4.800625 6.800625 3.91375 5.91375 3 5 C2.401875 4.443125 1.80375 3.88625 1.1875 3.3125 C0 2 0 2 0 0 Z " fill="#000000" transform="translate(826,401)"/>
<path d="M0 0 C0.88891184 7.82242423 -2.21076264 15.07981901 -6.71484375 21.41015625 C-13.97563906 29.91021203 -21.9573617 34.89304484 -33.15234375 36.1171875 C-35 36 -35 36 -37 34 C-32.38 29.71 -27.76 25.42 -23 21 C-24.155 21.86625 -25.31 22.7325 -26.5 23.625 C-32.75 28.3125 -32.75 28.3125 -39 33 C-39.5930659 24.84534393 -37.38978656 18.78043493 -32.375 12.3125 C-23.88246046 3.11580517 -12.20465643 -0.59054789 0 0 Z " fill="#000000" transform="translate(772,403)"/>
<path d="M0 0 C-1.30543408 2.61086815 -2.34025187 2.7089063 -5.03515625 3.7265625 C-6.12775757 4.14542725 -6.12775757 4.14542725 -7.24243164 4.57275391 C-8.1730542 4.91999512 -9.10367676 5.26723633 -10.0625 5.625 C-14.4865625 7.295625 -14.4865625 7.295625 -19 9 C-12.4 7.35 -5.8 5.7 1 4 C-2.15939495 11.89848737 -6.57144124 16.05924017 -14 20 C-24.88067263 24.14207424 -34.05018254 23.53638549 -45 20 C-45.99 19.34 -46.98 18.68 -48 18 C-46.04551597 11.05072346 -39.88339914 4.92226609 -34 1 C-22.50833762 -4.9705285 -11.89922135 -5.16381304 0 0 Z " fill="#000000" transform="translate(220,411)"/>
<path d="M0 0 C9.97129238 -0.60738837 16.90169604 0.56095365 24.8125 6.8125 C29.34468075 10.97663823 32.24696235 15.78743936 33 22 C28.01475706 20.23104283 23.5878012 17.6020365 19 15 C22.96 17.97 26.92 20.94 31 24 C30.67 24.66 30.34 25.32 30 26 C21.50682212 26.54211774 14.46892701 24.12376837 7.79296875 18.8203125 C4.69865224 15.67880598 2.84785307 11.96534993 1 8 C0.67 7.34 0.34 6.68 0 6 C-0.039992 4.00039988 -0.04346799 1.99952758 0 0 Z " fill="#000000" transform="translate(287,408)"/>
<path d="M0 0 C-0.50687998 9.2927996 -4.34446438 16.13733984 -11.1015625 22.49609375 C-17.88284077 27.86809402 -24.54675189 29.27268542 -33 29 C-33.66 28.67 -34.32 28.34 -35 28 C-35 27.34 -35 26.68 -35 26 C-33.217871 24.55925285 -31.37339724 23.19489351 -29.5 21.875 C-28.4790625 21.15054687 -27.458125 20.42609375 -26.40625 19.6796875 C-25.6121875 19.12539063 -24.818125 18.57109375 -24 18 C-28.29561003 20.05396887 -32.21426479 22.087896 -36 25 C-36.66 25 -37.32 25 -38 25 C-37.44409412 17.58792159 -33.61745959 12.27716351 -28.375 7.25 C-19.79733019 0.2435669 -10.75566977 -0.61558682 0 0 Z " fill="#000000" transform="translate(459,408)"/>
<path d="M0 0 C0.99 0.33 1.98 0.66 3 1 C2.566875 1.83144531 2.566875 1.83144531 2.125 2.6796875 C1.75375 3.40414063 1.3825 4.12859375 1 4.875 C0.62875 5.59429687 0.2575 6.31359375 -0.125 7.0546875 C-1.13673746 8.94848977 -1.13673746 8.94848977 -1 11 C0.98 7.7 2.96 4.4 5 1 C7.56425914 6.12851828 7.06550558 9.48906542 6 15 C2.76652748 23.16066875 -2.14364048 27.43582146 -10 31 C-10.66 31 -11.32 31 -12 31 C-14.49414472 26.01171056 -13.64416317 18.6309797 -12.3515625 13.3515625 C-9.93316759 7.2952402 -5.84826439 2.9241322 0 0 Z " fill="#000000" transform="translate(236,409)"/>
<path d="M0 0 C0.495 0.99 0.495 0.99 1 2 C-5.55885424 12.14255811 -11.83191899 20.87019776 -24 24.375 C-31.24101531 25.80857475 -38.05412952 25.41595495 -45 23 C-44 20 -44 20 -40.62109375 18.17578125 C-39.23133804 17.54407411 -37.83653466 16.92338204 -36.4375 16.3125 C-35.72658203 15.99216797 -35.01566406 15.67183594 -34.28320312 15.34179688 C-32.52633338 14.55179504 -30.76368655 13.77466377 -29 13 C-35.55777553 14.86897132 -35.55777553 14.86897132 -41.9375 17.25 C-44 18 -44 18 -47 17 C-42.27185643 8.06642219 -36.23701566 1.7305052 -26.5 -1.5 C-17.09664284 -3.95447258 -9.14117835 -3.55853014 0 0 Z " fill="#000000" transform="translate(812,423)"/>
<path d="M0 0 C23.3504432 -0.8630554 23.3504432 -0.8630554 33.8125 7.6875 C37.91105875 11.56078336 40.84537731 15.78126566 43 21 C43 21.66 43 22.32 43 23 C38.94180817 22.34496718 35.46028718 21.05440879 31.6875 19.4375 C30.08455078 18.75494141 30.08455078 18.75494141 28.44921875 18.05859375 C27.64097656 17.70925781 26.83273437 17.35992187 26 17 C27.58220587 17.96019364 29.16581331 18.91807798 30.75 19.875 C31.63171875 20.40867187 32.5134375 20.94234375 33.421875 21.4921875 C35.58274093 22.75596666 37.74570395 23.91498835 40 25 C40 25.66 40 26.32 40 27 C32.58590662 29.47136446 24.82828635 28.3627224 17.703125 25.44140625 C8.49305319 20.53025524 2.28681312 12.90505673 -1 3 C-0.67 2.01 -0.34 1.02 0 0 Z " fill="#000000" transform="translate(256,428)"/>
<path d="M0 0 C0 0.66 0 1.32 0 2 C-0.66 2.66 -1.32 3.32 -2 4 C-0.68 3.34 0.64 2.68 2 2 C1.59835194 7.4891902 -0.27173884 11.07149975 -4 15 C-10.2510023 19.6428026 -15.50273157 20.12495447 -23 20 C-24 18 -24 18 -23.36328125 16.01171875 C-20.18244575 8.97604171 -17.3484281 4.07379436 -10.171875 0.71484375 C-6.67612459 -0.43573597 -3.65263107 -0.26090222 0 0 Z M-6 5 C-6.99 6.485 -6.99 6.485 -8 8 C-6.68 7.34 -5.36 6.68 -4 6 C-4.66 5.67 -5.32 5.34 -6 5 Z " fill="#000000" transform="translate(318,449)"/>
<path d="M0 0 C8.9564665 6.53463796 15.36415342 15.52020692 19 26 C19 27.32 19 28.64 19 30 C4.36376039 33.01334345 -9.18122112 32.69447603 -22.40234375 24.7890625 C-32.24866222 18.00768827 -39.89366748 9.80406357 -43 -2 C-37.18450891 -1.27016745 -32.24649482 1.64372933 -27.0625 4.20507812 C-26.32773437 4.56150391 -25.59296875 4.91792969 -24.8359375 5.28515625 C-24.17126465 5.61394775 -23.5065918 5.94273926 -22.82177734 6.28149414 C-20.86125981 7.18344702 -20.86125981 7.18344702 -18 7 C-20.91588402 5.37359266 -23.83284294 3.74912272 -26.75 2.125 C-27.575 1.66480469 -28.4 1.20460938 -29.25 0.73046875 C-30.04921875 0.28574219 -30.8484375 -0.15898437 -31.671875 -0.6171875 C-32.4050293 -1.02565918 -33.13818359 -1.43413086 -33.89355469 -1.85498047 C-35.90821456 -2.95010736 -37.94271369 -3.98761998 -40 -5 C-40 -5.66 -40 -6.32 -40 -7 C-25.61808207 -11.18383067 -12.47853305 -8.25647299 0 0 Z " fill="#000000" transform="translate(848,458)"/>
<path d="M0 0 C3.55247598 2.93285808 6.77026677 6.10910713 9.3515625 9.94140625 C9.3515625 10.60140625 9.3515625 11.26140625 9.3515625 11.94140625 C-3.5184375 11.44640625 -3.5184375 11.44640625 -16.6484375 10.94140625 C-8.3984375 12.59140625 -0.1484375 14.24140625 8.3515625 15.94140625 C7.3515625 18.94140625 7.3515625 18.94140625 5.3828125 20.2578125 C-7.31573909 26.50910564 -19.95053787 27.89238825 -33.7421875 23.97265625 C-44.17965232 20.2690397 -54.5997617 13.44092914 -60.6484375 3.94140625 C-60.6484375 2.95140625 -60.6484375 1.96140625 -60.6484375 0.94140625 C-40.7723735 -9.79049221 -19.73620641 -13.80341929 0 0 Z " fill="#000000" transform="translate(272.6484375,465.05859375)"/>
<path d="M0 0 C1.30078125 2.140625 1.30078125 2.140625 2 4 C-4.91488049 11.70935612 -10.67022117 17.24845452 -21.23828125 18.33203125 C-27.80083149 18.53640133 -33.14347153 18.04088978 -39 15 C-39.33 14.01 -39.66 13.02 -40 12 C-35.38 10.68 -30.76 9.36 -26 8 C-30.95 8.66 -35.9 9.32 -41 10 C-38.42344033 3.55860083 -34.72313253 -0.02372013 -28.375 -2.875 C-19.23650066 -5.82689437 -8.29875931 -4.89762845 0 0 Z " fill="#000000" transform="translate(684,464)"/>
<path d="M0 0 C7.81862951 0.03264563 13.090724 1.80370413 19 7 C22.78267886 11.75259652 25 15.89774902 25 22 C17.62692046 22.35109903 10.86590043 22.20317465 4.94921875 17.30078125 C0.71297424 12.83649873 -1.02856715 9.04447104 -2 3 C2.75 4.875 2.75 4.875 5 6 C3.35 4.02 1.7 2.04 0 0 Z " fill="#000000" transform="translate(774,466)"/>
<path d="M0 0 C-0.48104267 9.13981076 -7.46463886 17.98229123 -14 24 C-24.90334595 32.10855913 -35.68699557 33.8391227 -49 33 C-49.99 32.67 -50.98 32.34 -52 32 C-52 31.34 -52 30.68 -52 30 C-50.1640625 28.67138672 -50.1640625 28.67138672 -47.625 27.1796875 C-46.27148438 26.37724609 -46.27148438 26.37724609 -44.890625 25.55859375 C-43.93671875 25.00300781 -42.9828125 24.44742187 -42 23.875 C-41.04609375 23.31167969 -40.0921875 22.74835938 -39.109375 22.16796875 C-36.74337273 20.77202741 -34.3735318 19.38308728 -32 18 C-34.99156701 18.63644122 -37.41938953 19.61952013 -40.109375 21.06640625 C-41.24052734 21.6706543 -41.24052734 21.6706543 -42.39453125 22.28710938 C-43.17183594 22.70798828 -43.94914063 23.12886719 -44.75 23.5625 C-45.54277344 23.98724609 -46.33554687 24.41199219 -47.15234375 24.84960938 C-49.10371067 25.89582417 -51.05279814 26.94605953 -53 28 C-54.30788232 24.07635305 -53.40101603 22.98199344 -51.625 19.3125 C-45.73862397 8.12028502 -36.35396335 2.48764613 -24.7265625 -1.84765625 C-17.23325206 -3.95079728 -6.78003279 -4.08476049 0 0 Z " fill="#000000" transform="translate(725,483)"/>
<path d="M0 0 C-1.33333333 4 -2.66666667 8 -4 12 C-3.59007812 11.278125 -3.18015625 10.55625 -2.7578125 9.8125 C-2.21898437 8.884375 -1.68015625 7.95625 -1.125 7 C-0.59132813 6.071875 -0.05765625 5.14375 0.4921875 4.1875 C1.23855469 3.1046875 1.23855469 3.1046875 2 2 C2.66 2 3.32 2 4 2 C5.27539272 9.22210337 5.35125487 15.33873647 2 22 C-2.6249642 28.51059869 -7.48979812 33.19958574 -15 36 C-16.32 36 -17.64 36 -19 36 C-20.34424427 25.66713438 -20.32631988 17.4946242 -14.3125 8.6875 C-10.67866613 4.20879975 -5.96582253 0 0 0 Z " fill="#000000" transform="translate(757,481)"/>
<path d="M0 0 C-1.26026798 3.78080393 -2.93546534 4.77295425 -6.0625 7.1875 C-6.98160156 7.90292969 -7.90070312 8.61835938 -8.84765625 9.35546875 C-9.55792969 9.89816406 -10.26820313 10.44085938 -11 11 C-10.39671875 10.57847656 -9.7934375 10.15695312 -9.171875 9.72265625 C-8.37265625 9.17480469 -7.5734375 8.62695312 -6.75 8.0625 C-5.56664062 7.24458984 -5.56664062 7.24458984 -4.359375 6.41015625 C-2.17363007 5.10377559 -0.4846199 4.45019489 2 4 C0.60294318 11.82351819 -2.66954986 16.66954986 -8.25 22.25 C-15.22034826 26.68567617 -22.69909782 29.07981637 -31 29 C-31.66 28.67 -32.32 28.34 -33 28 C-32.47129024 19.89311699 -29.2819369 12.77722299 -23.375 7.125 C-16.49033598 1.63025872 -8.71171454 -0.65748789 0 0 Z " fill="#000000" transform="translate(612,484)"/>
<path d="M0 0 C1.74332678 1.41407023 3.33664363 2.74777716 4.77734375 4.46875 C4.77734375 5.12875 4.77734375 5.78875 4.77734375 6.46875 C3.13185547 6.55962891 3.13185547 6.55962891 1.453125 6.65234375 C-0.00131279 6.73679498 -1.4557393 6.82144066 -2.91015625 6.90625 C-3.63138672 6.94556641 -4.35261719 6.98488281 -5.09570312 7.02539062 C-5.80146484 7.06728516 -6.50722656 7.10917969 -7.234375 7.15234375 C-7.87850342 7.18900146 -8.52263184 7.22565918 -9.1862793 7.26342773 C-11.55389685 7.50214807 -13.88924502 8.00206775 -16.22265625 8.46875 C-9.29265625 8.79875 -2.36265625 9.12875 4.77734375 9.46875 C3.53003359 13.21068048 2.37600754 13.59437494 -0.97265625 15.53125 C-1.83375 16.03785156 -2.69484375 16.54445313 -3.58203125 17.06640625 C-13.65008271 22.41319689 -23.72683458 22.66322205 -34.515625 19.44921875 C-41.31595614 16.98618395 -46.86924232 13.27309583 -52.22265625 8.46875 C-49.77045987 2.0930394 -42.83584586 -0.63515417 -37.09375 -3.6484375 C-25.76626345 -8.30356896 -10.02677685 -6.90772676 0 0 Z " fill="#000000" transform="translate(222.22265625,495.53125)"/>
<path d="M0 0 C10.26411682 -0.78618767 18.17025082 1.92173403 26.1875 8.37109375 C34.5785588 15.91219616 38.27736327 23.93885891 40 35 C34.96335423 37.51832289 28.1890786 36.27213359 22.9375 34.875 C13.03218099 31.52672315 4.52827244 24.67887064 -0.38671875 15.375 C-2.21248489 11.07003562 -3.20044099 7.71036317 -3 3 C2.53192638 6.06021459 7.77383293 9.4447843 13 13 C11.59234375 11.71802734 11.59234375 11.71802734 10.15625 10.41015625 C8.93737029 9.29441252 7.71862731 8.1785194 6.5 7.0625 C5.87996094 6.49853516 5.25992188 5.93457031 4.62109375 5.35351562 C3.06178382 3.92272025 1.52862521 2.46353265 0 1 C0 0.67 0 0.34 0 0 Z " fill="#000000" transform="translate(804,490)"/>
<path d="M0 0 C5.623174 1.3631937 8.81676826 5.43308321 12 10 C13.6211683 13.25207335 14.90462836 16.53721223 16 20 C16.20238281 20.63292969 16.40476562 21.26585937 16.61328125 21.91796875 C18.21709209 30.5526271 15.90502945 40.27073482 12 48 C10.3671875 49.8046875 10.3671875 49.8046875 9 51 C-1.12986465 42.50271548 -7.99017217 34.58244228 -9.28515625 21.01171875 C-9.49950336 13.67731981 -8.27843505 7.55687011 -5 1 C-4.34 1 -3.68 1 -3 1 C-1.02 6.94 0.96 12.88 3 19 C2.690625 17.164375 2.38125 15.32875 2.0625 13.4375 C1.3161298 8.96457223 0.61268443 4.49301913 0 0 Z " fill="#000000" transform="translate(779,492)"/>
<path d="M0 0 C5.91213445 2.55033251 8.48909095 5.3215055 11.12109375 11.2109375 C13.03329376 17.27898553 12.96860929 23.30081631 10.5 29.1875 C10.005 30.115625 9.51 31.04375 9 32 C3.04507043 29.14163381 -0.88800191 25.91773604 -4 20 C-6.25236684 13.18336554 -6.2953271 7.75846312 -4 1 C-3.34 1 -2.68 1 -2 1 C-0.68 3.97 0.64 6.94 2 10 C1.34 6.7 0.68 3.4 0 0 Z " fill="#000000" transform="translate(627,499)"/>
<path d="M0 0 C-0.73266488 4.08641257 -2.68657975 7.59474154 -4.5625 11.25 C-4.89185547 11.8996875 -5.22121094 12.549375 -5.56054688 13.21875 C-6.37007565 14.81434294 -7.18455042 16.40742483 -8 18 C-6.72651788 16.27278316 -5.45632943 14.54313762 -4.1875 12.8125 C-3.47980469 11.84957031 -2.77210938 10.88664063 -2.04296875 9.89453125 C0.02393008 7.06355231 0.02393008 7.06355231 1.63671875 4.13671875 C2.31154297 3.07904297 2.31154297 3.07904297 3 2 C3.66 2 4.32 2 5 2 C7.96492092 7.92984183 6.23093411 16.19703647 4.375 22.25 C0.22407212 33.35770946 -8.0610864 41.94884409 -18.8125 46.9375 C-21.84642399 48.22899723 -24.77995188 49.28693573 -28 50 C-31.45303333 43.09393334 -29.14361108 32.02547403 -27.09765625 24.87890625 C-23.4833994 15.39952084 -16.91728599 6.50602167 -7.71875 1.84375 C-5.14867055 0.83806674 -2.78260489 0 0 0 Z " fill="#000000" transform="translate(296,502)"/>
<path d="M0 0 C-0.91786561 5.36226751 -2.92668271 9.98390978 -5 15 C-2.36 10.38 0.28 5.76 3 1 C3.66 1.33 4.32 1.66 5 2 C7.31547265 10.30436431 5.48372462 18.96312989 1.7421875 26.55078125 C-3.26644607 34.69323199 -10.43153788 39.15896525 -19 43 C-19.66 43 -20.32 43 -21 43 C-23.97749706 37.04500588 -22.66225851 26.34503822 -21.38671875 19.90234375 C-18.6470086 12.28667368 -13.11882046 5.62272528 -6.1875 1.4375 C-3 0 -3 0 0 0 Z " fill="#000000" transform="translate(614,511)"/>
<path d="M0 0 C1.42892578 -0.00386719 1.42892578 -0.00386719 2.88671875 -0.0078125 C5.3125 0.125 5.3125 0.125 7.3125 1.125 C7.3125 1.785 7.3125 2.445 7.3125 3.125 C5.50903714 4.60567558 3.64233352 6.00973361 1.75 7.375 C-2.9110917 10.7772115 -7.36838227 14.2966911 -11.6875 18.125 C-4.97892379 14.64317242 1.3025421 10.8988179 7.4140625 6.4453125 C9.3125 5.125 9.3125 5.125 10.3125 5.125 C9.90942489 15.60495287 4.64009456 24.66176845 -2.4921875 32.16015625 C-12.84816241 41.42893807 -25.39129077 45.32713159 -39 45.1875 C-40.25393555 45.18073242 -40.25393555 45.18073242 -41.53320312 45.17382812 C-43.58466649 45.16210548 -45.63609273 45.14417203 -47.6875 45.125 C-47.48147494 33.17554634 -41.22210435 22.72290093 -33.0703125 14.30859375 C-23.67325247 5.69718956 -12.93296744 -0.03528777 0 0 Z " fill="#000000" transform="translate(245.6875,513.875)"/>
<path d="M0 0 C8.83971158 5.57537364 16.46458763 13.55122423 21 23 C21 23.99 21 24.98 21 26 C8.18787467 29.69834546 -3.47277197 30.73048735 -15.80859375 24.60546875 C-22.39543883 20.73948984 -27.74169296 16.9556946 -31.8125 10.375 C-32.41707031 9.41335938 -33.02164063 8.45171875 -33.64453125 7.4609375 C-35 5 -35 5 -35 3 C-30.30519838 3.62645359 -26.18205199 4.90755293 -21.75 6.5625 C-17.481445 8.32932968 -17.481445 8.32932968 -13 9 C-15.76987033 7.68543451 -18.54083487 6.3732713 -21.3125 5.0625 C-22.09818359 4.68931641 -22.88386719 4.31613281 -23.69335938 3.93164062 C-24.8293457 3.39506836 -24.8293457 3.39506836 -25.98828125 2.84765625 C-26.68477783 2.51773682 -27.38127441 2.18781738 -28.09887695 1.84790039 C-30.15220735 0.89503306 -30.15220735 0.89503306 -33 0 C-33 -0.66 -33 -1.32 -33 -2 C-22.51804676 -6.06277257 -9.89505957 -5.32568493 0 0 Z " fill="#000000" transform="translate(735,521)"/>
<path d="M0 0 C0.66 0 1.32 0 2 0 C2.99 6.27 3.98 12.54 5 19 C5 12.73 5 6.46 5 0 C10.63636879 2.81818439 13.46095455 7.1625193 15.8125 12.875 C18.24895248 21.02451348 18.70986333 32.07446708 15.375 40 C14.2890625 41.99609375 14.2890625 41.99609375 13 44 C12.20722656 45.25490234 12.20722656 45.25490234 11.3984375 46.53515625 C9.97222226 48.72179431 8.51009144 50.87077106 7 53 C0.93591761 50.56103939 -2.33552583 44.44311805 -5.08203125 38.76171875 C-8.87760989 28.5342236 -8.76531043 18.19354003 -5 8 C-3.58891757 5.13360057 -2.13365225 2.39419725 0 0 Z " fill="#000000" transform="translate(653,527)"/>
<path d="M0 0 C9.55092104 1.98977522 16.35177835 8.2302512 22 16 C29.02142659 27.66522725 30.95992161 39.99192584 28 53.375 C27.67 54.57125 27.34 55.7675 27 57 C18.44468819 56.54972043 9.66798556 50.21477946 4 44 C-4.94897597 32.05562874 -7.68436668 20.78157025 -6 6 C-4.98046875 3.45703125 -4.98046875 3.45703125 -4 2 C-0.93515924 5.86923419 1.59289853 10.06014427 4.1875 14.25 C4.65091797 14.99507812 5.11433594 15.74015625 5.59179688 16.5078125 C6.72950232 18.33752435 7.86497348 20.16862513 9 22 C8.51789062 20.91460938 8.03578125 19.82921875 7.5390625 18.7109375 C6.90090015 17.26568748 6.26288723 15.82037147 5.625 14.375 C5.30789063 13.66214844 4.99078125 12.94929687 4.6640625 12.21484375 C2.89403488 8.19540604 1.31133626 4.19892519 0 0 Z " fill="#000000" transform="translate(693,539)"/>
<path d="M0 0 C8.60027651 0.54895382 15.56159322 4.67360024 21.4296875 10.91015625 C28.41576514 20.20754814 29.17928507 29.8046431 29 41 C19.48904346 40.63419398 11.02601577 36.63965486 4.5 29.6875 C-1.71974587 22.01949729 -4.55887777 13.87350733 -4 4 C-3.34 3.34 -2.68 2.68 -2 2 C-1.38511719 2.75925781 -0.77023437 3.51851562 -0.13671875 4.30078125 C0.67152344 5.29464844 1.47976563 6.28851562 2.3125 7.3125 C3.11300781 8.29863281 3.91351562 9.28476562 4.73828125 10.30078125 C6.43150237 12.32153392 8.12378766 14.16154791 10 16 C9.278125 14.92878906 8.55625 13.85757813 7.8125 12.75390625 C6.8748795 11.3568517 5.93738603 9.95971188 5 8.5625 C4.52304687 7.85544922 4.04609375 7.14839844 3.5546875 6.41992188 C3.10351562 5.74638672 2.65234375 5.07285156 2.1875 4.37890625 C1.76855469 3.7557251 1.34960938 3.13254395 0.91796875 2.49047852 C0 1 0 1 0 0 Z " fill="#000000" transform="translate(734,558)"/>
</svg>
